<svg width="152" height="24" version="1.1" viewBox="0 0 40.217 6.35" xmlns="http://www.w3.org/2000/svg"><g transform="translate(-40.622 -102.07)"><g stroke-width=".2217" aria-label="DuniaWiki"><path d="m40.622 108.29v-0.18623l0.17736-0.0621q0.28378-0.0887 0.28378-0.44339 0.0089-0.50548 0.0089-1.0287 0-0.53208 0-1.0819v-0.31038q0-0.51434 0-1.0287 0-0.51435-0.0089-1.0287 0-0.36358-0.27491-0.45227l-0.18623-0.0532v-0.18623h2.3323q0.93114 0 1.6051 0.34585 0.67397 0.34585 1.0376 1.0021 0.36359 0.64736 0.36359 1.5696 0 0.94001-0.39906 1.5962-0.39019 0.65623-1.1085 1.0021-0.70944 0.34585-1.6583 0.34585zm1.747-0.25717h0.45227q0.62963 0 1.0198-0.24831 0.39906-0.2483 0.58529-0.83359 0.18623-0.59415 0.18623-1.5962t-0.18623-1.5874q-0.18623-0.58528-0.57642-0.83359-0.38132-0.2483-0.99322-0.2483h-0.48774q-0.0089 0.61189-0.0089 1.2415 0 0.62076 0 1.2504v0.30151q0 0.6651 0 1.3036 0 0.62963 0.0089 1.2504z"/><path d="m47.92 108.42q-0.34585 0-0.62963-0.12415-0.28378-0.13302-0.45227-0.42566-0.15962-0.30151-0.15076-0.78926l0.0266-2.2259q0-0.19511-0.06207-0.28378-0.06207-0.0887-0.2217-0.12416l-0.10642-0.0354v-0.15963l1.5164-0.29264 0.09755 0.0975-0.04434 1.2504v2.013q0 0.30152 0.15962 0.4434 0.16849 0.13303 0.4168 0.13303 0.25717 0 0.46114-0.071 0.21283-0.0799 0.43453-0.23056l0.0266-2.7314q0-0.20397-0.06207-0.28378-0.05321-0.0798-0.21283-0.12414l-0.09755-0.0266v-0.15962l1.481-0.31039 0.09755 0.0976-0.0266 1.2504v2.3234q0 0.18623 0.04434 0.30151 0.05321 0.10642 0.2217 0.15963l0.11528 0.0354v0.1685l-1.4987 0.0887-0.07981-0.55869q-0.30151 0.25718-0.65623 0.42567t-0.79812 0.16849z"/><path d="m51.317 108.29v-0.1685l0.14189-0.0354q0.29264-0.0887 0.29264-0.43453v-2.6161q-0.0089-0.18623-0.06207-0.28378-0.05321-0.10642-0.23057-0.14188l-0.14189-0.0354v-0.15962l1.4366-0.51435 0.10642 0.0975 0.06207 0.54982q0.31925-0.28377 0.70944-0.46114 0.39906-0.18623 0.78038-0.18623 0.58529 0 0.89567 0.31925 0.31925 0.31925 0.31925 0.97549v2.4653q0 0.34585 0.31925 0.43453l0.09755 0.0266v0.1685h-2.0396v-0.1685l0.13302-0.0354q0.29264-0.0975 0.29264-0.43453v-2.6338q0-0.31038-0.13302-0.45227-0.13302-0.14188-0.4434-0.14188-0.43453 0-0.90454 0.38132v2.8555q0 0.34586 0.31038 0.43453l0.08868 0.0267v0.1685z"/><path d="m57.436 103.42q-0.29264 0-0.49661-0.18623-0.20396-0.18623-0.20396-0.47 0-0.29265 0.20396-0.47001 0.20396-0.18623 0.49661-0.18623t0.49661 0.18623q0.20396 0.17736 0.20396 0.47001 0 0.28377-0.20396 0.47-0.20396 0.18623-0.49661 0.18623zm-1.0198 4.8774v-0.1685l0.13302-0.0354q0.17736-0.0532 0.23944-0.15963 0.06207-0.10641 0.07095-0.28377v-1.6317q0-0.27491 0-0.50548 0-0.23944-0.0089-0.48774 0-0.17736-0.07095-0.2749-0.06207-0.10642-0.23944-0.1419l-0.12415-0.0266v-0.15963l1.5519-0.51434 0.10642 0.0975-0.0266 1.2593v2.3944q0 0.17736 0.06207 0.28377 0.07095 0.10641 0.23944 0.15962l0.09755 0.0267v0.1685z"/><path d="m60.123 108.42q-0.50548 0-0.8602-0.28377-0.34585-0.29265-0.34585-0.8336 0-0.42566 0.40793-0.78038 0.4168-0.36359 1.3036-0.53208 0.15076-0.0354 0.34585-0.0621 0.20396-0.0354 0.39906-0.071v-0.62963q0-0.60303-0.15076-0.8336-0.15076-0.23056-0.47887-0.23056h-0.0266q-0.20396 0-0.32812 0.13302-0.11528 0.12415-0.15076 0.41679l-0.0266 0.11529q-0.0266 0.35472-0.18623 0.52321-0.15962 0.15962-0.39906 0.15962-0.2217 0-0.37246-0.13302-0.14189-0.14188-0.14189-0.36358 0-0.36359 0.2483-0.61189 0.2483-0.24831 0.65623-0.37246 0.4168-0.12416 0.89567-0.12416 0.78925 0 1.206 0.38133t0.4168 1.2415v1.9776q0 0.38133 0.36359 0.38133h0.20396l0.08868 0.0975q-0.15962 0.20396-0.35472 0.31038-0.1951 0.11528-0.53208 0.11528-0.38132 0-0.61189-0.17736-0.2217-0.18623-0.29264-0.48774-0.28378 0.30151-0.55868 0.48774-0.27491 0.18623-0.71831 0.18623zm0.51434-0.56755q0.17736 0 0.33698-0.0799 0.15962-0.0798 0.39906-0.26604v-1.4189q-0.23057 0.0354-0.47 0.0887-0.38132 0.0887-0.62076 0.32811-0.23057 0.23944-0.23057 0.64736 0 0.35472 0.15962 0.53209 0.16849 0.16849 0.42566 0.16849z"/><g fill="#bfbfbf"><path d="m65.319 108.33-1.5342-5.2232q-0.06207-0.1951-0.14189-0.29264-0.07981-0.0976-0.26604-0.15963l-0.10642-0.0354v-0.18623h2.2879v0.18623l-0.18623 0.0621q-0.20396 0.0621-0.26604 0.17735-0.05321 0.11529 0 0.31925l0.96661 3.6359 1.0553-3.1482-0.15962-0.51434q-0.06207-0.18623-0.12415-0.28377-0.06207-0.10642-0.20396-0.1685l-0.1951-0.0798v-0.18623h2.1727v0.18623l-0.2483 0.0798q-0.17736 0.0621-0.20396 0.17736-0.0266 0.11528 0.03547 0.31038l1.1174 3.6802 1.0287-3.627q0.06207-0.20396 0.03547-0.35472t-0.23057-0.21284l-0.17736-0.0532v-0.18622h1.3125v0.18622l-0.2217 0.071q-0.17736 0.0621-0.25717 0.18623-0.07095 0.11528-0.12415 0.31038l-1.4544 5.1434h-0.61189l-1.3125-4.1325-1.3745 4.1325z"/><path d="m72.325 103.42q-0.29264 0-0.49661-0.18623t-0.20396-0.47q0-0.29265 0.20396-0.47001 0.20396-0.18623 0.49661-0.18623 0.29264 0 0.49661 0.18623 0.20396 0.17736 0.20396 0.47001 0 0.28377-0.20396 0.47t-0.49661 0.18623zm-1.0198 4.8774v-0.1685l0.13302-0.0354q0.17736-0.0532 0.23944-0.15963 0.06207-0.10641 0.07095-0.28377v-1.6317q0-0.27491 0-0.50548 0-0.23944-0.0089-0.48774 0-0.17736-0.07095-0.2749-0.06207-0.10642-0.23944-0.1419l-0.12416-0.0266v-0.15962l1.5519-0.51435 0.10642 0.0976-0.0266 1.2592v2.3944q0 0.17737 0.06207 0.28377 0.07095 0.10642 0.23944 0.15963l0.09755 0.0267v0.16849z"/><path d="m73.744 108.29v-0.1685l0.13302-0.0443q0.30151-0.0887 0.30151-0.43453v-4.5936q0-0.17736-0.07095-0.26604-0.07095-0.0976-0.2483-0.14189l-0.11528-0.0354v-0.16849l1.5519-0.37246 0.11528 0.0798-0.03547 1.2504v4.2478q0 0.35472 0.30151 0.4434l0.12415 0.0354v0.1685zm3.2457 0-1.6051-2.217 1.5696-1.4544q0.11528-0.0976 0.13302-0.21284 0.01774-0.12414-0.15076-0.16849l-0.14189-0.0354v-0.1685h1.3834v0.1685l-0.25717 0.0621q-0.1951 0.0532-0.31925 0.15075-0.12415 0.0887-0.29264 0.23944l-0.97548 0.9134 1.5076 2.0662q0.14189 0.18622 0.25717 0.29264 0.11528 0.0975 0.31038 0.16849l0.08868 0.0266v0.1685z"/><path d="m79.827 103.42q-0.29264 0-0.49661-0.18623-0.20396-0.18623-0.20396-0.47 0-0.29265 0.20396-0.47001 0.20396-0.18623 0.49661-0.18623t0.49661 0.18623q0.20396 0.17736 0.20396 0.47001 0 0.28377-0.20396 0.47-0.20396 0.18623-0.49661 0.18623zm-1.0198 4.8774v-0.1685l0.13302-0.0354q0.17736-0.0532 0.23944-0.15963 0.06207-0.10641 0.07095-0.28377v-1.6317q0-0.27491 0-0.50548 0-0.23944-0.0089-0.48774 0-0.17736-0.07095-0.2749-0.06207-0.10642-0.23944-0.1419l-0.12415-0.0266v-0.15963l1.5519-0.51434 0.10642 0.0975-0.0266 1.2593v2.3944q0 0.17736 0.06207 0.28377 0.07095 0.10641 0.23944 0.15962l0.09755 0.0267v0.1685z"/></g></g></g></svg>
