<svg width="154" height="26" version="1.1" viewBox="0 0 40.746 6.8792" xmlns="http://www.w3.org/2000/svg"><g transform="translate(-96.809 -76.625)"><path d="m100.99 77.623c-0.60116 0.0065-1.1996 0.24416-1.6525 0.69651-0.64071 0.63997-0.84521 1.5796-0.53558 2.4606 0.25418 0.72318 0.91738 1.2987 1.7033 1.478 0.29706 0.06779 0.85738 0.0484 1.1444-0.03964 1.0097-0.30976 1.6861-1.2176 1.6861-2.2631 0-0.7917-0.41098-1.5412-1.0807-1.971-0.38611-0.24777-0.82628-0.36609-1.265-0.36134zm-0.20727 0.28486c0.0758 0 0.0803 0.03247 0.0803 0.57692v0.57696l-0.17511-0.0044c-0.30975-0.0078-0.52544-0.07374-0.52544-0.16063 0-0.09494 0.287-0.65719 0.43346-0.84922 0.0586-0.07678 0.14263-0.13958 0.1868-0.13958zm0.44419 0c0.0419 0 0.1333 0.08052 0.20577 0.18144 0.13765 0.19167 0.41937 0.75117 0.41937 0.83285 0 0.02651-0.0459 0.05974-0.10197 0.07382-0.0561 0.01408-0.21371 0.03724-0.35028 0.05152l-0.24831 0.02598v-0.5828c0-0.53734 6e-3 -0.5828 0.0754-0.5828zm0.58097 0.16522c0.0708 0.0011 0.46039 0.26332 0.61616 0.41459l0.18047 0.17526-0.13924 0.07054c-0.26455 0.13395-0.32786 0.13985-0.35569 0.03317-0.0138-0.05303-0.0927-0.23086-0.17521-0.39518-0.0825-0.16432-0.13946-0.29858-0.12649-0.29838zm-1.6104 0.01956c4e-3 -9.4e-5 6e-3 8.58e-4 6e-3 0.0029 0 0.01334-0.0442 0.10176-0.0981 0.19646-0.0539 0.0947-0.13064 0.26029-0.17043 0.36795-0.03979 0.10766-0.08375 0.19507-0.09767 0.19438-0.06495-0.0034-0.41676-0.17773-0.41676-0.20645 0-0.06013 0.3898-0.3769 0.58719-0.47716 0.0908-0.04614 0.16774-0.07744 0.18955-0.07807zm2.5624 0.80987 0.0881 0.17232c0.0913 0.17852 0.19774 0.53066 0.19867 0.65658 4.9e-4 0.0633-0.0442 0.07208-0.36476 0.07208h-0.3652l-0.0277-0.23523c-0.0152-0.12938-0.0372-0.27317-0.0488-0.31957-0.0177-0.07041 0.0236-0.10604 0.24923-0.21529zm-3.5384 0.0042 0.27945 0.12418 0.2795 0.12418-0.03467 0.14909c-0.01906 0.08199-0.03509 0.22788-0.03563 0.32421l-1e-3 0.17512h-0.75323l0.02453-0.20718c0.01349-0.11394 0.07323-0.31572 0.13277-0.44839zm2.7026 0.36148c0.0154-3.68e-4 0.0251 6.13e-4 0.0276 3e-3 0.01 0.0097 0.0307 0.13344 0.0467 0.27496l0.0291 0.25729h-0.87607v-0.22663c0-0.22655 1e-4 -0.22668 0.1292-0.22668 0.071 0 0.24712-0.02172 0.39128-0.04828 0.10811-0.01992 0.20591-0.03267 0.25217-0.0337zm-1.816 0.0049c0.0221 2.46e-4 0.0513 0.0048 0.0912 0.01169 0.0817 0.0142 0.26444 0.03745 0.40609 0.05161l0.25753 0.02573v0.44139h-0.86538v-0.13905c0-0.0765 0.012-0.19905 0.02665-0.27231 0.0183-0.09134 0.0275-0.11956 0.0839-0.11906zm2.9506 0.81552-0.0249 0.18139c-0.0137 0.09975-0.0627 0.28243-0.10888 0.40595-0.13775 0.36819-0.14733 0.37353-0.42724 0.23914-0.13212-0.06344-0.24687-0.12202-0.25507-0.13021-8e-3 -0.0082 8e-3 -0.16279 0.0358-0.34357l0.0507-0.3287 0.36477-0.01202zm-4.0914 2.45e-4 0.36056 0.01188 0.36056 0.01192 0.02786 0.28167c0.01531 0.15492 0.03692 0.30533 0.04804 0.3343 0.01267 0.03302-0.07405 0.09711-0.23242 0.17169-0.13896 0.06543-0.26461 0.12429-0.27926 0.1308-0.06266 0.02783-0.28468-0.61648-0.2851-0.82735zm1.0187 2.45e-4 0.42815 0.01183 0.42821 0.01178 0.0124 0.23696 0.0123 0.23696-0.13596 8.58e-4c-0.0748 4.91e-4 -0.25265 0.02526-0.39523 0.05514-0.15874 0.03326-0.26855 0.03925-0.28326 0.01545-0.0132-0.02135-0.0336-0.15812-0.0453-0.3039zm1.1654 3e-3h0.87718l-0.0262 0.25039c-0.0366 0.35013-0.0442 0.35743-0.31523 0.30007-0.12466-0.02639-0.29618-0.04976-0.38118-0.05195l-0.15455-4e-3v-0.24725zm-0.42458 0.78148c0.15487-0.0024 0.1361 0.10858 0.1361 0.55543 0 0.30464-0.0139 0.56099-0.0309 0.56967-0.11836 0.06045-0.39725-0.2889-0.59043-0.73957-0.1175-0.27412-0.11019-0.28776 0.18173-0.3386 0.14178-0.02469 0.2381-0.04591 0.30349-0.04693zm0.51395 0.0015c0.19026 0 0.61119 0.09312 0.61119 0.13519 0 0.10268-0.33979 0.73507-0.46799 0.871-0.0766 0.08123-0.16027 0.14769-0.18593 0.14769-0.0325 0-0.0466-0.17494-0.0466-0.57691 0-0.56438 2e-3 -0.57696 0.0894-0.57696zm0.92449 0.22794c1e-3 -1e-5 3e-3 8e-6 4e-3 4.7e-5 0.0421 0.0011 0.10348 0.02254 0.18574 0.06402 0.0971 0.04897 0.18446 0.09623 0.19414 0.10501 0.0352 0.03198-0.22965 0.27749-0.46698 0.4328-0.13384 0.08758-0.25689 0.15923-0.27341 0.15923-0.0165 0 0.042-0.14338 0.13002-0.31861 0.088-0.17523 0.16005-0.34101 0.16005-0.36844 0-0.04908 0.0214-0.07376 0.066-0.07406zm-2.3245 0.0028c0.01321-2.46e-4 0.02163 0.0024 0.02361 0.0083 0.0078 0.02354 0.08796 0.1952 0.17801 0.38142 0.0901 0.18623 0.15788 0.34444 0.15073 0.35158-0.0457 0.04575-0.77245-0.47992-0.77245-0.55876 0-0.04697 0.32759-0.18146 0.42009-0.18255z" fill="#16796f" stroke-width=".04121"/><g fill="#cadedf" stroke-width=".04121"><path d="m104.91 77.158c-0.1886 0-0.22652 0.01212-0.22605 0.07213 1e-3 0.15953-0.25052 4.7026-0.27168 4.9018l-0.0227 0.21413-0.31672 0.0689c-0.94723 0.20606-2.3153 0.80072-2.3153 1.0064 0 0.04566 0.01 0.08304 0.0214 0.08304 0.0118 0 0.18486-0.08209 0.38461-0.18241 0.66049-0.33172 1.5741-0.58624 2.386-0.66473 0.26779-0.02589 0.29877-0.03798 0.29896-0.11631 9e-5 -0.04807 0.0649-1.2279 0.14387-2.6218 0.079-1.3939 0.14384-2.5854 0.14403-2.6477 3.6e-4 -0.10994-6e-3 -0.11336-0.2263-0.11336z"/><path d="m97.121 77.158c-0.21988 0-0.22667 0.0034-0.22629 0.11336 2.2e-4 0.06233 0.06503 1.2538 0.14402 2.6477 0.079 1.3939 0.14371 2.5738 0.14383 2.6218 1.96e-4 0.07833 0.03122 0.09042 0.299 0.11631 0.81314 0.07862 1.7354 0.33578 2.3766 0.6627 0.19444 0.09914 0.36742 0.18122 0.38442 0.18236 0.017 0.0011 0.0309-0.0353 0.0309-0.08097 0-0.09608-0.11259-0.17146-0.64146-0.42961-0.42056-0.20528-1.1986-0.47336-1.6739-0.57677l-0.31668-0.0689-0.02274-0.21413c-0.02116-0.19917-0.27296-4.7422-0.27168-4.9018 4.78e-4 -0.06001-0.03745-0.07213-0.22605-0.07213z"/><path d="m104.43 76.625c-0.0451 0.0016-0.14074 0.01535-0.24653 0.03616-0.5764 0.1134-1.4014 0.39305-2.0801 0.70515l-0.35984 0.16546 0.37964 0.18559c0.65294 0.31919 1.1391 0.89652 1.3506 1.6038 0.10084 0.33729 0.10084 1.0227 0 1.3599-0.2997 1.0024-1.1062 1.6891-2.1785 1.8549l-0.1545 0.0239v0.87114l0.11331-0.07479c0.83401-0.5504 1.4924-0.83441 2.7507-1.1867l0.16483-0.04611 0.15209-2.7395c0.0836-1.5067 0.14446-2.7471 0.13518-2.7564-2e-3 -0.0023-0.0118-0.0031-0.0268-0.0026z"/><path d="m97.602 76.625c-0.01504-6.13e-4 -0.02448 2.45e-4 -0.0268 0.0026-0.0093 0.0093 0.05156 1.2497 0.13519 2.7564l0.15204 2.7395 0.16483 0.04611c1.1466 0.32096 1.68 0.53738 2.3869 0.96847 0.25112 0.15315 0.46121 0.2796 0.46688 0.281 6e-3 0.0014 0.0103-0.19134 0.0103-0.4283v-0.43086l-0.1545-0.0239c-0.62481-0.09659-1.1014-0.33041-1.5138-0.74286-0.31281-0.31281-0.53885-0.69096-0.66473-1.112-0.10084-0.33729-0.10084-1.0227 0-1.3599 0.21146-0.70729 0.69762-1.2846 1.3506-1.6038l0.37958-0.18559-0.35979-0.16546c-0.67874-0.3121-1.5037-0.59175-2.0801-0.70515-0.10578-0.02081-0.20141-0.03453-0.24652-0.03616z"/></g><g stroke-width=".17157"><path d="m106.35 82.372v-0.14412l0.13726-0.04806q0.2196-0.06864 0.2196-0.34313 7e-3 -0.39118 7e-3 -0.79609 0-0.41177 0-0.83726v-0.2402q0-0.39804 0-0.79608 0-0.39805-7e-3 -0.7961 0-0.28137-0.21274-0.35l-0.14412-0.04117v-0.14412h1.8049q0.7206 0 1.2422 0.26765 0.52158 0.26765 0.80295 0.7755 0.28138 0.50098 0.28138 1.2147 0 0.72746-0.30883 1.2353-0.30196 0.50784-0.85785 0.77549-0.54903 0.26765-1.2833 0.26765zm1.352-0.19902h0.34999q0.48726 0 0.78923-0.19216 0.30882-0.19216 0.45294-0.6451 0.14412-0.4598 0.14412-1.2353 0-0.7755-0.14412-1.2284-0.14412-0.45294-0.44608-0.6451-0.2951-0.19216-0.76864-0.19216h-0.37745q-7e-3 0.47353-7e-3 0.96079 0 0.4804 0 0.96766v0.23333q0 0.51471 0 1.0088 0 0.48726 7e-3 0.96766z"/><path d="m112 82.468q-0.26764 0-0.48725-0.09608-0.21961-0.10294-0.35-0.32941-0.12354-0.23333-0.11667-0.6108l0.0206-1.7226q0-0.15099-0.0481-0.21961-0.0481-0.06864-0.17157-0.09609l-0.0824-0.0274v-0.12354l1.1735-0.22647 0.0755 0.07545-0.0343 0.96765v1.5579q0 0.23334 0.12353 0.34314 0.13039 0.10295 0.32256 0.10295 0.19902 0 0.35686-0.05495 0.1647-0.06183 0.33627-0.17843l0.0206-2.1137q0-0.15785-0.0481-0.21961-0.0412-0.06176-0.1647-0.09607l-0.0755-0.02059v-0.12353l1.1461-0.24021 0.0755 0.07553-0.0206 0.96765v1.7981q0 0.14412 0.0343 0.23333 0.0412 0.08236 0.17157 0.12354l0.0892 0.0274v0.1304l-1.1598 0.06864-0.0618-0.43236q-0.23333 0.19903-0.50785 0.32942-0.27451 0.13039-0.61765 0.13039z"/><path d="m114.62 82.372v-0.1304l0.10981-0.0274q0.22647-0.06864 0.22647-0.33628v-2.0245q-7e-3 -0.14412-0.0481-0.21961-0.0412-0.08236-0.17843-0.1098l-0.1098-0.0274v-0.12353l1.1118-0.39805 0.0823 0.07545 0.0481 0.4255q0.24706-0.2196 0.54903-0.35687 0.30882-0.14412 0.60392-0.14412 0.45295 0 0.69314 0.24706 0.24707 0.24706 0.24707 0.75492v1.9079q0 0.26765 0.24706 0.33628l0.0754 0.02059v0.1304h-1.5784v-0.1304l0.10294-0.02739q0.22647-0.07545 0.22647-0.33628v-2.0383q0-0.2402-0.10294-0.35-0.10295-0.1098-0.34314-0.1098-0.33628 0-0.7 0.2951v2.2098q0 0.26766 0.24019 0.33628l0.0686 0.02066v0.1304z"/><path d="m119.36 78.598q-0.22648 0-0.38432-0.14412-0.15785-0.14412-0.15785-0.36373 0-0.22648 0.15785-0.36373 0.15784-0.14412 0.38432-0.14412 0.22647 0 0.38431 0.14412 0.15785 0.13726 0.15785 0.36373 0 0.2196-0.15785 0.36373-0.15784 0.14412-0.38431 0.14412zm-0.78923 3.7745v-0.1304l0.10295-0.0274q0.13725-0.04117 0.18529-0.12354 0.048-0.08235 0.0549-0.2196v-1.2628q0-0.21275 0-0.39118 0-0.1853-7e-3 -0.37745 0-0.13726-0.0549-0.21274-0.0481-0.08236-0.18529-0.10982l-0.0961-0.02059v-0.12354l1.201-0.39804 0.0823 0.07545-0.0206 0.97452v1.853q0 0.13726 0.0481 0.2196 0.055 0.08235 0.1853 0.12353l0.0755 0.02066v0.1304z"/><path d="m121.44 82.468q-0.39117 0-0.66569-0.2196-0.26764-0.22648-0.26764-0.64511 0-0.32941 0.31568-0.60392 0.32255-0.28138 1.0088-0.41177 0.11668-0.0274 0.26765-0.04806 0.15785-0.0274 0.30883-0.05495v-0.48726q0-0.46668-0.11666-0.64511-0.11668-0.17843-0.3706-0.17843h-0.0206q-0.15784 0-0.25392 0.10294-0.0892 0.09608-0.11667 0.32255l-0.0206 0.08922q-0.0206 0.27451-0.14412 0.4049-0.12353 0.12353-0.30883 0.12353-0.17157 0-0.28823-0.10294-0.10981-0.1098-0.10981-0.28137 0-0.28138 0.19216-0.47353 0.19216-0.19216 0.50784-0.28824 0.32256-0.09609 0.69315-0.09609 0.61079 0 0.93334 0.2951t0.32255 0.96079v1.5304q0 0.2951 0.28138 0.2951h0.15784l0.0686 0.07545q-0.12353 0.15784-0.27452 0.2402-0.15098 0.08921-0.41176 0.08921-0.29511 0-0.47354-0.13726-0.17157-0.14412-0.22647-0.37745-0.21961 0.23333-0.43236 0.37745-0.21274 0.14412-0.55589 0.14412zm0.39805-0.43922q0.13725 0 0.26078-0.06183 0.12354-0.06176 0.30883-0.20588v-1.098q-0.17844 0.0274-0.36373 0.06864-0.2951 0.06864-0.48039 0.25392-0.17844 0.1853-0.17844 0.50098 0 0.27451 0.12353 0.41178 0.1304 0.13039 0.32942 0.13039z"/></g><g fill="#bfbfbf" stroke-width=".17157"><path d="m125.46 82.4-1.1873-4.0422q-0.0481-0.15098-0.1098-0.22647-0.0618-0.07553-0.20589-0.12354l-0.0824-0.0274v-0.14412h1.7706v0.14412l-0.14412 0.04806q-0.15784 0.04806-0.20588 0.13725-0.0412 0.08922 0 0.24706l0.74804 2.8138 0.81668-2.4363-0.12353-0.39804q-0.0481-0.14412-0.0961-0.2196-0.0481-0.08236-0.15785-0.1304l-0.15098-0.06176v-0.14412h1.6814v0.14412l-0.19215 0.06176q-0.13726 0.04806-0.15785 0.13726-0.0206 0.08921 0.0275 0.2402l0.86471 2.8481 0.79609-2.8069q0.0481-0.15784 0.0275-0.27451-0.0206-0.11667-0.17843-0.16471l-0.13726-0.04117v-0.14411h1.0157v0.14411l-0.17157 0.05495q-0.13725 0.04806-0.19902 0.14412-0.0549 0.08921-0.0961 0.2402l-1.1255 3.9804h-0.47358l-1.0157-3.1981-1.0637 3.1981z"/><path d="m130.88 78.598q-0.22647 0-0.38432-0.14412-0.15784-0.14412-0.15784-0.36373 0-0.22648 0.15784-0.36373 0.15785-0.14412 0.38432-0.14412 0.22648 0 0.38432 0.14412 0.15785 0.13726 0.15785 0.36373 0 0.2196-0.15785 0.36373-0.15784 0.14412-0.38432 0.14412zm-0.78922 3.7745v-0.1304l0.10294-0.0274q0.13726-0.04117 0.1853-0.12354 0.0481-0.08235 0.055-0.2196v-1.2628q0-0.21275 0-0.39118 0-0.1853-7e-3 -0.37745 0-0.13726-0.0549-0.21274-0.0481-0.08236-0.1853-0.10982l-0.0961-0.02059v-0.12353l1.201-0.39805 0.0823 0.07553-0.0206 0.97451v1.853q0 0.13726 0.0481 0.2196 0.0549 0.08236 0.1853 0.12354l0.0754 0.02066v0.13039z"/><path d="m131.98 82.372v-0.1304l0.10293-0.03428q0.23334-0.06864 0.23334-0.33628v-3.5549q0-0.13726-0.0549-0.20588-0.055-0.07553-0.19217-0.10981l-0.0892-0.02739v-0.13039l1.201-0.28824 0.0892 0.06176-0.0275 0.96766v3.2873q0 0.27451 0.23334 0.34314l0.0961 0.02739v0.1304zm2.5118 0-1.2422-1.7157 1.2147-1.1255q0.0892-0.07553 0.10294-0.16471 0.0137-0.09607-0.11666-0.13039l-0.10981-0.0274v-0.1304h1.0706v0.1304l-0.19903 0.04806q-0.15098 0.04117-0.24705 0.11666-0.0961 0.06864-0.22648 0.1853l-0.75491 0.70687 1.1667 1.599q0.1098 0.14411 0.19902 0.22647 0.0892 0.07545 0.2402 0.13039l0.0686 0.02059v0.1304z"/><path d="m136.69 78.598q-0.22647 0-0.38432-0.14412-0.15784-0.14412-0.15784-0.36373 0-0.22648 0.15784-0.36373 0.15785-0.14412 0.38432-0.14412t0.38432 0.14412q0.15784 0.13726 0.15784 0.36373 0 0.2196-0.15784 0.36373-0.15785 0.14412-0.38432 0.14412zm-0.78922 3.7745v-0.1304l0.10294-0.0274q0.13726-0.04117 0.1853-0.12354 0.0481-0.08235 0.0549-0.2196v-1.2628q0-0.21275 0-0.39118 0-0.1853-7e-3 -0.37745 0-0.13726-0.0549-0.21274-0.0481-0.08236-0.1853-0.10982l-0.0961-0.02059v-0.12354l1.201-0.39804 0.0824 0.07545-0.0206 0.97452v1.853q0 0.13726 0.0481 0.2196 0.0549 0.08235 0.18529 0.12353l0.0755 0.02066v0.1304z"/></g></g></svg>
